HIERARCHY
ROOT Hips
{
	OFFSET 0.000000 0.000000 0.000000
	CHANNELS 6 Xposition Yposition Zposition Xrotation Yrotation Zrotation
	JOINT LeftUpLeg_virtual
	{
		OFFSET 0.000000 0.000000 0.000000
		CHANNELS 3 Xrotation Yrotation Zrotation
		JOINT LeftUpLeg
		{
			OFFSET 15.427100 -6.655098 0.678600
			CHANNELS 3 Xrotation Yrotation Zrotation
			JOINT LeftLeg
			{
				OFFSET 4.081073 -39.591068 13.024000
				CHANNELS 3 Xrotation Yrotation Zrotation
				JOINT LeftFoot
				{
					OFFSET -4.081074 -37.707932 -15.979700
					CHANNELS 3 Xrotation Yrotation Zrotation
					JOINT LeftToeBase
					{
						OFFSET 5.346399 -15.068900 20.645000
						CHANNELS 3 Xrotation Yrotation Zrotation
						JOINT LeftToe_End
						{
							OFFSET 2.754700 0.931300 11.300900
							CHANNELS 3 Xrotation Yrotation Zrotation
							End Site
							{
								OFFSET 0 0 0
							}
						}
					}
				}
			}
		}
	}
	JOINT RightUpLeg_virtual
	{
		OFFSET 0.000000 0.000000 0.000000
		CHANNELS 3 Xrotation Yrotation Zrotation
		JOINT RightUpLeg
		{
			OFFSET -15.569500 -6.655098 0.678600
			CHANNELS 3 Xrotation Yrotation Zrotation
			JOINT RightLeg
			{
				OFFSET -4.081825 -39.591045 13.023800
				CHANNELS 3 Xrotation Yrotation Zrotation
				JOINT RightFoot
				{
					OFFSET 4.081824 -37.707954 -15.979600
					CHANNELS 3 Xrotation Yrotation Zrotation
					JOINT RightToeBase
					{
						OFFSET -5.346400 -15.068900 20.645000
						CHANNELS 3 Xrotation Yrotation Zrotation
						JOINT RightToe_End
						{
							OFFSET -2.754700 0.931300 11.300900
							CHANNELS 3 Xrotation Yrotation Zrotation
							End Site
							{
								OFFSET 0 0 0
							}
						}
					}
				}
			}
		}
	}
	JOINT Spine_virtual
	{
		OFFSET 0.000000 0.000000 0.000000
		CHANNELS 3 Xrotation Yrotation Zrotation
		JOINT Spine
		{
			OFFSET -0.279200 12.230698 -2.892100
			CHANNELS 3 Xrotation Yrotation Zrotation
			JOINT Spine1
			{
				OFFSET -0.232667 10.192268 -1.242267
				CHANNELS 3 Xrotation Yrotation Zrotation
				JOINT Spine1_split
				{
					OFFSET -0.232667 10.192268 -1.242267
					CHANNELS 3 Xrotation Yrotation Zrotation
					JOINT Spine2
					{
						OFFSET -0.232667 10.192268 -1.242267
						CHANNELS 3 Xrotation Yrotation Zrotation
						JOINT Neck_virtual
						{
							OFFSET 0.000000 0.000000 0.000000
							CHANNELS 3 Xrotation Yrotation Zrotation
							JOINT Neck
							{
								OFFSET -0.418800 17.814194 8.416900
								CHANNELS 3 Xrotation Yrotation Zrotation
								JOINT Head
								{
									OFFSET 0.000000 7.031097 3.806800
									CHANNELS 3 Xrotation Yrotation Zrotation
									JOINT HeadTop_End
									{
										OFFSET 0.000000 24.646606 12.978600
										CHANNELS 3 Xrotation Yrotation Zrotation
										End Site
										{
											OFFSET 0 0 0
										}
									}
								}
							}
						}
						JOINT LeftShoulder_virtual
						{
							OFFSET 0.000000 0.000000 0.000000
							CHANNELS 3 Xrotation Yrotation Zrotation
							JOINT LeftShoulder
							{
								OFFSET 8.476499 7.247704 -3.868750
								CHANNELS 3 Xrotation Yrotation Zrotation
								JOINT LeftShoulder_split
								{
									OFFSET 8.476499 7.247704 -3.868750
									CHANNELS 3 Xrotation Yrotation Zrotation
									JOINT LeftArm
									{
										OFFSET 9.308998 -2.777710 0.208600
										CHANNELS 3 Xrotation Yrotation Zrotation
										JOINT LeftForeArm
										{
											OFFSET 29.972298 0.000000 0.000000
											CHANNELS 3 Xrotation Yrotation Zrotation
											JOINT LeftHand
											{
												OFFSET 26.026505 0.000000 0.000000
												CHANNELS 3 Xrotation Yrotation Zrotation
												End Site
												{
													OFFSET 0 0 0
												}
											}
										}
									}
								}
							}
						}
						JOINT RightShoulder_virtual
						{
							OFFSET 0.000000 0.000000 0.000000
							CHANNELS 3 Xrotation Yrotation Zrotation
							JOINT RightShoulder
							{
								OFFSET -7.570500 7.247704 -3.868750
								CHANNELS 3 Xrotation Yrotation Zrotation
								JOINT RightShoulder_split
								{
									OFFSET -7.570500 7.247704 -3.868750
									CHANNELS 3 Xrotation Yrotation Zrotation
									JOINT RightArm
									{
										OFFSET -9.308998 -2.777710 0.208500
										CHANNELS 3 Xrotation Yrotation Zrotation
										JOINT RightForeArm
										{
											OFFSET -29.972300 0.000000 0.000000
											CHANNELS 3 Xrotation Yrotation Zrotation
											JOINT RightHand
											{
												OFFSET -26.026505 0.000000 0.000000
												CHANNELS 3 Xrotation Yrotation Zrotation
												End Site
												{
													OFFSET 0 0 0
												}
											}
										}
									}
								}
							}
						}
					}
				}
			}
		}
	}
}
MOTION
Frames: 7
Frame Time: 0.03333333
-22.849682 75.080551 -8.737829 0.000000 0.000000 0.000000 34.120275 5.826099 -3.975489 -62.890982 -19.631077 25.369930 38.975515 3.406291 -1.635794 4.978858 10.324832 -31.560993 -3.413837 0.117377 0.069291 0.000000 0.000000 0.000000 34.532009 5.177053 -4.166407 -56.515557 -0.666495 -30.692299 45.958997 2.515250 2.753523 -19.769240 -6.729240 21.734891 -0.541144 0.394788 0.508432 0.000000 0.000000 0.000000 35.125040 3.939547 -4.916300 10.254047 2.340179 0.187500 9.920087 2.007285 1.018928 0.890208 0.004936 0.371558 0.000000 0.000000 0.000000 8.529439 2.178915 0.869609 -1.275016 -1.584143 -1.538068 -30.487820 -11.402138 4.300074 0.000000 0.000000 0.000000 8.676849 2.173918 0.564827 0.066451 -21.774607 -10.052318 1.751354 0.781299 -2.251514 15.666261 -11.727206 -49.197962 -2.772575 -71.788642 -2.755893 0.000000 0.000000 0.000000 8.685444 2.382669 1.141535 3.554630 25.742419 6.707659 0.707973 2.784901 -0.174029 -5.329155 41.469504 18.911394 -0.857176 20.691232 1.751841 0.000000 0.000000 0.000000 
-22.005783 73.940430 -8.590338 0.000000 0.000000 0.000000 36.732033 5.995096 -3.522215 -67.951763 -18.522360 24.474275 41.358585 2.419383 -1.825836 3.937383 8.876708 -31.467884 -3.595344 -0.000902 0.367616 0.000000 0.000000 0.000000 37.215112 4.933151 -3.527090 -59.432317 0.703188 -32.457124 46.894658 3.539769 3.036509 -20.740283 -6.889881 22.162801 -1.113360 0.433446 0.466083 0.000000 0.000000 0.000000 37.977276 3.976369 -4.322377 10.480826 2.629032 0.150118 10.277392 2.168252 1.042698 0.844456 -0.004883 0.407959 0.000000 0.000000 0.000000 8.830105 2.347326 0.853653 -1.547837 -1.777850 -1.696334 -32.437863 -12.163680 3.480442 0.000000 0.000000 0.000000 9.039661 2.335821 0.547634 0.080387 -22.420263 -9.694384 1.890455 0.707762 -2.391399 15.400847 -11.415614 -49.014763 -3.644279 -74.132592 -3.668894 0.000000 0.000000 0.000000 8.970349 2.562734 1.195253 3.486829 26.214485 6.927585 0.948609 2.771689 -0.290162 -7.805125 41.485466 15.813606 -1.165780 20.904113 1.877044 0.000000 0.000000 0.000000 
-21.154179 72.736191 -8.321508 0.000000 0.000000 0.000000 39.255652 6.416255 -2.906702 -72.985769 -17.284079 23.585710 43.729087 1.405747 -2.094075 2.862741 7.330157 -30.875935 -3.548271 -0.101705 0.439525 0.000000 0.000000 0.000000 39.757479 5.011468 -2.766576 -62.136546 2.296088 -34.683998 48.308200 4.703550 3.577738 -21.756586 -7.078661 22.667911 -1.682881 0.432040 0.479802 0.000000 0.000000 0.000000 40.734698 4.256682 -3.573869 10.698197 2.859298 0.090260 10.607385 2.322482 1.046751 0.838115 -0.020737 0.404339 0.000000 0.000000 0.000000 9.127822 2.510367 0.825630 -1.768653 -2.014359 -1.841289 -34.152155 -12.997593 2.616310 0.000000 0.000000 0.000000 9.399068 2.494117 0.537843 0.139012 -23.123153 -9.203495 2.155032 0.535497 -2.581329 15.855755 -12.063759 -48.881967 -4.574333 -76.268952 -4.657439 0.000000 0.000000 0.000000 9.259248 2.728850 1.240367 3.377142 26.475755 7.294834 1.170972 2.735226 -0.352148 -11.198943 41.304777 13.339337 -1.466131 21.198981 1.881061 0.000000 0.000000 0.000000 
-20.308617 71.353180 -7.930777 0.000000 0.000000 0.000000 41.629498 7.105863 -2.129005 -77.778410 -16.041259 22.720380 46.037971 0.402382 -2.437008 1.729385 5.920957 -29.832788 -3.386179 -0.176037 0.317664 0.000000 0.000000 0.000000 42.084153 5.454067 -1.885992 -64.480920 4.179139 -37.349435 50.206228 5.905939 4.301100 -23.154375 -7.421665 22.979406 -1.827103 0.408017 0.563477 0.000000 0.000000 0.000000 43.296750 4.814529 -2.678031 10.907130 3.045884 -0.020616 10.959740 2.494236 1.045765 0.803455 -0.043429 0.400181 0.000000 0.000000 0.000000 9.492017 2.687774 0.804075 -2.004346 -2.292022 -2.007067 -35.764322 -13.879846 1.669578 0.000000 0.000000 0.000000 9.803044 2.670530 0.551727 0.243110 -23.770178 -8.622086 2.463963 0.385763 -2.741120 16.618441 -13.423125 -48.789595 -5.458222 -77.880016 -5.584311 0.000000 0.000000 0.000000 9.602813 2.897191 1.275184 3.280141 26.602885 7.675889 1.381456 2.648391 -0.329282 -14.809419 40.996585 11.089863 -1.719794 21.855543 1.796806 0.000000 0.000000 0.000000 
-19.551151 69.703964 -7.462366 0.000000 0.000000 0.000000 43.751490 8.083634 -1.227111 -82.152108 -14.916570 21.859112 48.332198 -0.616657 -2.804371 0.327058 4.805079 -28.501527 -3.202425 -0.237678 0.120348 0.000000 0.000000 0.000000 44.179552 6.284551 -0.911883 -66.310127 6.379185 -40.319522 52.641231 7.068302 5.111926 -25.099757 -7.989399 22.942814 -1.506730 0.385817 0.705121 0.000000 0.000000 0.000000 45.591581 5.635356 -1.687117 11.129464 3.216623 -0.200054 11.385931 2.713493 1.054411 0.713737 -0.090420 0.436580 0.000000 0.000000 0.000000 9.981768 2.906233 0.800640 -2.369886 -2.610387 -2.230210 -37.440457 -14.753752 0.611405 0.000000 0.000000 0.000000 10.302181 2.886125 0.598742 0.396146 -24.244323 -7.994320 2.691030 0.308976 -2.803391 17.275674 -15.115866 -48.727000 -6.328743 -78.821599 -6.456861 0.000000 0.000000 0.000000 10.060522 3.092916 1.309904 3.233900 26.715110 7.936187 1.539909 2.569507 -0.174981 -17.901111 40.702077 8.522808 -1.864184 22.794187 1.688852 0.000000 0.000000 0.000000 
-18.906227 67.772873 -6.946398 0.000000 0.000000 0.000000 45.586615 9.240729 -0.277924 -85.973114 -14.008488 20.997228 50.676384 -1.714771 -3.133739 -1.380356 4.029278 -27.148899 -3.135859 -0.297671 -0.010048 0.000000 0.000000 0.000000 46.022771 7.377519 0.084158 -67.564313 8.851630 -43.438299 55.558541 8.222359 5.913658 -27.425465 -8.753372 22.702415 -1.023845 0.373670 0.860244 0.000000 0.000000 0.000000 47.581861 6.692187 -0.690774 11.358414 3.426520 -0.437278 11.930316 3.005230 1.082061 0.689382 -0.169520 0.463961 0.000000 0.000000 0.000000 10.630848 3.188353 0.828734 -2.934954 -2.953194 -2.518593 -39.308859 -15.610655 -0.566395 0.000000 0.000000 0.000000 10.923037 3.160318 0.678337 0.575334 -24.442372 -7.355759 2.717004 0.308914 -2.795216 17.434734 -16.832812 -48.752142 -7.103773 -79.124238 -7.158972 0.000000 0.000000 0.000000 10.661195 3.344844 1.347239 3.242698 26.957614 8.018465 1.527146 2.477984 0.083332 -20.117844 40.410797 5.348713 -1.875325 23.581962 1.605872 0.000000 0.000000 0.000000 
-18.363617 65.601692 -6.384855 0.000000 0.000000 0.000000 47.150824 10.499764 0.594245 -89.263155 -13.377635 20.157316 53.083124 -2.913926 -3.396692 -3.339371 3.606162 -26.097948 -3.244750 -0.349064 0.030860 0.000000 0.000000 0.000000 47.644080 8.597904 1.005390 -68.232429 11.510389 -46.555942 58.778948 9.459950 6.615003 -29.926867 -9.625231 22.526379 -0.611288 0.373356 0.976766 0.000000 0.000000 0.000000 49.251497 7.909655 0.229932 11.576184 3.700905 -0.690917 12.603257 3.360963 1.138381 0.632435 -0.282154 0.557361 0.000000 0.000000 0.000000 11.441951 3.531312 0.896945 -3.719678 -3.311145 -2.847077 -41.452650 -16.421516 -1.820436 0.000000 0.000000 0.000000 11.660031 3.502142 0.785781 0.748361 -24.306806 -6.766833 2.680984 0.327353 -2.720597 17.031253 -18.447345 -48.870383 -7.671935 -78.973666 -7.631376 0.000000 0.000000 0.000000 11.392147 3.659479 1.407561 3.309469 27.400366 7.861408 1.379428 2.471548 0.292452 -21.642684 40.056987 1.655603 -1.801165 23.810241 1.589092 0.000000 0.000000 0.000000 
